<?xml version="1.0" encoding="UTF-8"?>
<svg version="1.1" xmlns="http://www.w3.org/2000/svg" width="500" height="500">
<path d="M0 0 C3.07933253 2.84887226 5.11911628 5.6268788 7.13671875 9.296875 C7.70986816 10.33062256 8.28301758 11.36437012 8.87353516 12.42944336 C9.47214355 13.52522705 10.07075195 14.62101074 10.6875 15.75 C11.93848371 18.01710279 13.18978582 20.28402992 14.44140625 22.55078125 C15.04871582 23.65502441 15.65602539 24.75926758 16.28173828 25.89697266 C18.15148735 29.27357265 20.06645856 32.62155478 21.99316406 35.96582031 C31.5626063 52.63597033 36.60877979 70.39345945 32.0546875 89.640625 C30.95719204 93.54137279 29.54371355 97.25466713 28 101 C27.65066406 101.90621094 27.30132812 102.81242187 26.94140625 103.74609375 C22.75300098 113.33493366 14.98046132 121.21173247 7.50292969 128.37060547 C-11.12734358 146.24428869 -20.77841152 168.26239454 -22 194 C-30.1124522 193.12956522 -34.18142935 188.27180814 -39.33203125 182.29296875 C-49.8455904 168.91370353 -56.30779393 155.28740108 -55 138 C-51.54268148 117.74227432 -37.23427581 104.94157533 -23.11181641 91.37915039 C-6.72210751 75.60010131 5.05309927 58.87441822 6.03125 35.33984375 C6.15397812 25.6070653 3.95279737 15.84574246 -0.328125 7.11328125 C-1.18013018 4.43342775 -0.73125573 2.67658347 0 0 Z " fill="#EB1B24" transform="translate(248,98)"/>
<path d="M0 0 C3.88523205 1.95797267 4.50423363 6.65747922 5.87109375 10.53515625 C11.45046953 28.00274263 9.98227945 45.70067415 2.2890625 62.30859375 C-5.90359671 77.47942249 -18.63594868 89.34422695 -35.15429688 94.68505859 C-55.10789434 100.45386533 -55.10789434 100.45386533 -63.3984375 96.30859375 C-69.6608059 90.7917454 -69.6608059 90.7917454 -70.58984375 86.19140625 C-70.55946242 62.31167719 -56.19958539 43.78464107 -40.02978516 27.62915039 C-29.52638227 17.42885536 -17.58046197 9.42741324 -5.0234375 1.99609375 C-2.0234375 -0.00390625 -2.0234375 -0.00390625 0 0 Z " fill="#EA1B24" transform="translate(308.0234375,202.00390625)"/>
<path d="M0 0 C10.23 0 20.46 0 31 0 C29.56278125 3.59304688 28.60367794 5.82955065 26.4609375 8.8203125 C25.96625977 9.51584229 25.47158203 10.21137207 24.96191406 10.92797852 C24.1763916 12.01550415 24.1763916 12.01550415 23.375 13.125 C22.84100586 13.87257568 22.30701172 14.62015137 21.75683594 15.39038086 C20.1772736 17.59801632 18.59024094 19.80004785 17 22 C16.55624023 22.61472168 16.11248047 23.22944336 15.65527344 23.86279297 C13.44808387 26.91680467 11.23031348 29.96283782 9 33 C9.64549805 33.01981934 10.29099609 33.03963867 10.95605469 33.06005859 C13.88777221 33.15546328 16.81879232 33.26507971 19.75 33.375 C20.76578125 33.4059375 21.7815625 33.436875 22.828125 33.46875 C23.8078125 33.50742187 24.7875 33.54609375 25.796875 33.5859375 C27.14797363 33.63306885 27.14797363 33.63306885 28.52636719 33.68115234 C31.08822875 34.01137256 32.78127437 34.70951673 35 36 C35.38285156 34.7934375 35.76570313 33.586875 36.16015625 32.34375 C38.2976438 25.94507758 40.85262219 19.72862123 43.4375 13.5 C43.91509766 12.30890625 44.39269531 11.1178125 44.88476562 9.890625 C45.35462891 8.76140625 45.82449219 7.6321875 46.30859375 6.46875 C46.72939209 5.44201172 47.15019043 4.41527344 47.58374023 3.35742188 C49 1 49 1 51.16821289 0.15820312 C51.77270264 0.10599609 52.37719238 0.05378906 53 0 C55.12783807 2.68198628 56.70534932 5.24946053 58.0859375 8.37890625 C58.64293335 9.6304248 58.64293335 9.6304248 59.21118164 10.90722656 C59.5952417 11.7834668 59.97930176 12.65970703 60.375 13.5625 C61.1730443 15.36073602 61.97122052 17.15891349 62.76953125 18.95703125 C63.3430835 20.25568115 63.3430835 20.25568115 63.92822266 21.58056641 C65.28634934 24.6464059 66.67073845 27.6992906 68.0625 30.75 C68.44535156 31.59046875 68.82820313 32.4309375 69.22265625 33.296875 C69.47917969 33.85890625 69.73570312 34.4209375 70 35 C71.65 34.67 73.3 34.34 75 34 C75.11174561 33.31067383 75.22349121 32.62134766 75.33862305 31.91113281 C76.54131614 26.61732978 78.86633998 21.69826828 80.98266602 16.71484375 C81.81340099 14.74786668 82.62247979 12.77280702 83.43164062 10.796875 C83.95962342 9.54631938 84.48887662 8.29629921 85.01953125 7.046875 C85.49495361 5.91088867 85.97037598 4.77490234 86.46020508 3.60449219 C88 1 88 1 90.1862793 0.12207031 C91.08407104 0.06164551 91.08407104 0.06164551 92 0 C94.4201037 3.85765351 96.3995671 7.84352054 98.28515625 11.98046875 C98.90421961 13.32230127 99.52336257 14.66409708 100.14257812 16.00585938 C101.10738316 18.10535205 102.07073753 20.20549484 103.0324707 22.30639648 C103.96711406 24.34533793 104.90708686 26.38175576 105.84765625 28.41796875 C106.27740501 29.36327705 106.27740501 29.36327705 106.71583557 30.3276825 C107.93422067 32.96005759 108.93062923 34.93062923 111 37 C109 39 109 39 105.875 39.125 C104.92625 39.08375 103.9775 39.0425 103 39 C102.32880451 37.5437455 101.66318193 36.08492133 101 34.625 C100.62875 33.81289063 100.2575 33.00078125 99.875 32.1640625 C99 30 99 30 99 28 C93.06 28.33 87.12 28.66 81 29 C79.35 32.3 77.7 35.6 76 39 C72.04 39 68.08 39 64 39 C64 38.34 64 37.68 64 37 C63.34 36.67 62.68 36.34 62 36 C61.01 32.04 61.01 32.04 60 28 C54.06 28.33 48.12 28.66 42 29 C39.525 33.95 39.525 33.95 37 39 C34.36 39 31.72 39 29 39 C29 39.66 29 40.32 29 41 C18.11 40.34 7.22 39.68 -4 39 C-3.01 37.02 -2.02 35.04 -1 33 C-0.34 33 0.32 33 1 33 C2.45145066 31.30748927 2.45145066 31.30748927 3.8984375 29.08984375 C4.74148437 27.85137695 4.74148437 27.85137695 5.6015625 26.58789062 C6.18679687 25.71326172 6.77203125 24.83863281 7.375 23.9375 C7.9525 23.08994141 8.53 22.24238281 9.125 21.36914062 C12.29609496 16.68127765 15.26915018 11.9572323 18 7 C16.87980469 6.96261719 15.75960937 6.92523438 14.60546875 6.88671875 C13.1327791 6.82105743 11.66012434 6.75461014 10.1875 6.6875 C9.44951172 6.66494141 8.71152344 6.64238281 7.95117188 6.61914062 C2.45025238 6.3453392 2.45025238 6.3453392 -0.01171875 4.45703125 C-0.33785156 3.97621094 -0.66398438 3.49539063 -1 3 C-0.67 2.01 -0.34 1.02 0 0 Z M89 8 C90 10 90 10 90 10 Z M48 12 C47.3291288 13.6232687 46.66342971 15.24867578 46 16.875 C45.62875 17.77992188 45.2575 18.68484375 44.875 19.6171875 C43.88509774 21.88983858 43.88509774 21.88983858 44 24 C48.62 24 53.24 24 58 24 C56.35 20.37 54.7 16.74 53 13 C52.67 13.66 52.34 14.32 52 15 C51.01 15 50.02 15 49 15 C48.67 14.01 48.34 13.02 48 12 Z M87 12 C88 14 88 14 88 14 Z M86 15 C84.77479736 18.00847418 84.77479736 18.00847418 84 21 C84.66 21 85.32 21 86 21 C86 21.66 86 22.32 86 23 C85.01 22.67 84.02 22.34 83 22 C83 22.66 83 23.32 83 24 C87.62 24 92.24 24 97 24 C95.35 20.7 93.7 17.4 92 14 C88.94729537 13.84188612 88.94729537 13.84188612 86 15 Z " fill="#030202" transform="translate(214,324)"/>
<path d="M0 0 C0.66 0 1.32 0 2 0 C7.03223136 11.40639107 6.35577302 25.39986533 2.25390625 36.9765625 C-3.32790183 50.43550162 -12.52748936 59.66648711 -22.8190918 69.70214844 C-36.58971124 83.13417058 -47.78161462 95.34484386 -54 114 C-55.485 114.495 -55.485 114.495 -57 115 C-58 114 -58 114 -58.3125 110.75 C-58.09434512 97.20015783 -50.69208934 85.00114398 -42.3203125 74.89453125 C-26.65912027 55.35758942 -9.13593653 31.22899379 -2 7 C-1.66742188 5.90171875 -1.66742188 5.90171875 -1.328125 4.78125 C-0.86207713 3.19416805 -0.42619846 1.59824423 0 0 Z " fill="#E61D25" transform="translate(239,114)"/>
<path d="M0 0 C2.13334421 -0.06183606 4.2666891 -0.12345272 6.40008545 -0.18347168 C8.03609768 -0.23239093 9.67176902 -0.2930675 11.30712891 -0.36035156 C16.68827905 -0.43544301 19.75397618 0.38351283 24 4 C25.55024464 7.10048928 25.28992015 9.57894218 25 13 C23 15.9375 23 15.9375 21 18 C21.804375 18.61875 22.60875 19.2375 23.4375 19.875 C26 22 26 22 27 24 C27.57538625 31.01971231 27.57538625 31.01971231 25.3125 34.875 C20.31460548 39.46765983 15.25606603 39.28520771 8.8125 39.1875 C7.58370117 39.1865332 7.58370117 39.1865332 6.33007812 39.18554688 C0.28148496 39.14074248 0.28148496 39.14074248 -2 38 C-1.67 37.01 -1.34 36.02 -1 35 C-0.84653047 32.34393699 -0.74282102 29.70904905 -0.68359375 27.05078125 C-0.66281265 26.27816452 -0.64203156 25.50554779 -0.62062073 24.70951843 C-0.55528962 22.2439352 -0.49631685 19.77824639 -0.4375 17.3125 C-0.39429913 15.63996309 -0.35068434 13.96743681 -0.30664062 12.29492188 C-0.1996251 8.1967225 -0.09831143 4.09841704 0 0 Z M6 4 C6 7.96 6 11.92 6 16 C12.13499725 16.54158278 12.13499725 16.54158278 17.625 14.375 C19.30727626 11.98588072 19.30727626 11.98588072 18.75 8.75 C18.5025 7.8425 18.255 6.935 18 6 C17.01 6 16.02 6 15 6 C15 5.34 15 4.68 15 4 C12.03 4 9.06 4 6 4 Z M6 20 C6 24.95 6 29.9 6 35 C12.13584927 35.3184525 12.13584927 35.3184525 18 33.875 C20.21428985 32.07919407 20.21428985 32.07919407 21.0625 29.125 C21.24532507 25.90320867 21.24532507 25.90320867 19.375 23.125 C17.18398407 20.75239053 17.18398407 20.75239053 14.25 20.6875 C13.5075 20.790625 12.765 20.89375 12 21 C12 20.67 12 20.34 12 20 C10.02 20 8.04 20 6 20 Z " fill="#030303" transform="translate(143,324)"/>
<path d="M0 0 C0.75990234 -0.020625 1.51980469 -0.04125 2.30273438 -0.0625 C6.98906277 -0.09507222 9.83280533 0.32998351 13.6875 3.25 C14.450625 3.806875 15.21375 4.36375 16 4.9375 C16.556875 5.370625 17.11375 5.80375 17.6875 6.25 C16.76334187 12.51238731 15.78255825 16.30768831 11.6875 21.25 C11.44238198 25.78468345 14.43050921 28.9995985 17.01953125 32.48046875 C18.78411155 34.35249422 20.33390835 35.25444605 22.6875 36.25 C22.6875 37.24 22.6875 38.23 22.6875 39.25 C15.5114333 39.85814125 15.5114333 39.85814125 12.0625 37.3125 C3.6875 26.51315789 3.6875 26.51315789 3.6875 23.25 C1.7075 22.92 -0.2725 22.59 -2.3125 22.25 C-2.30089844 23.30960937 -2.28929687 24.36921875 -2.27734375 25.4609375 C-2.26796524 26.84895658 -2.25886511 28.23697755 -2.25 29.625 C-2.24162109 30.32367188 -2.23324219 31.02234375 -2.22460938 31.7421875 C-2.19921875 37.0234375 -2.19921875 37.0234375 -3.3125 39.25 C-6.11612763 39.47732116 -7.77436517 39.59081872 -10.1875 38.0625 C-11.3125 36.25 -11.3125 36.25 -11 33.5625 C-10.773125 32.799375 -10.54625 32.03625 -10.3125 31.25 C-9.9825 31.25 -9.6525 31.25 -9.3125 31.25 C-9.28347004 27.00001434 -9.26569113 22.75005419 -9.25 18.5 C-9.24162109 17.2934375 -9.23324219 16.086875 -9.22460938 14.84375 C-9.22138672 13.68359375 -9.21816406 12.5234375 -9.21484375 11.328125 C-9.20698853 9.72565918 -9.20698853 9.72565918 -9.19897461 8.09082031 C-9.29746992 5.62610765 -9.59684536 3.59754533 -10.3125 1.25 C-7.0732886 -0.3696057 -3.55545619 0.02376245 0 0 Z M-2.3125 4.25 C-2.6425 8.87 -2.9725 13.49 -3.3125 18.25 C1.27505953 19.39688988 3.29895144 18.79411894 7.6875 17.25 C10.10233656 15.25162681 10.10233656 15.25162681 10.125 11.3125 C10.13257796 9.18741492 10.13257796 9.18741492 9.6875 7.25 C7.04255622 4.83176569 5.4320372 4.29963581 1.875 4.0625 C1.153125 4.124375 0.43125 4.18625 -0.3125 4.25 C-0.3125 4.91 -0.3125 5.57 -0.3125 6.25 C-0.9725 5.59 -1.6325 4.93 -2.3125 4.25 Z " fill="#020202" transform="translate(339.3125,323.75)"/>
<path d="M0 0 C2.26660156 0.05151367 2.26660156 0.05151367 5 1 C6.51804619 3.42368564 7.62764008 5.57091561 8.734375 8.17578125 C9.21961639 9.25813301 9.21961639 9.25813301 9.71466064 10.36235046 C10.74431165 12.67161483 11.74685566 14.99161718 12.75 17.3125 C13.43974595 18.86467115 14.13113394 20.41611373 14.82421875 21.96679688 C20.52536003 34.82157246 20.52536003 34.82157246 21 38 C20 39 20 39 17.4375 39.0625 C16.633125 39.041875 15.82875 39.02125 15 39 C13.33333333 35.66666667 11.66666667 32.33333333 10 29 C4.06 28.67 -1.88 28.34 -8 28 C-8.474375 29.44375 -8.94875 30.8875 -9.4375 32.375 C-10.19397017 34.67730051 -10.91608814 36.83217629 -12 39 C-13.32 38.67 -14.64 38.34 -16 38 C-5.29949685 12.23623663 -5.29949685 12.23623663 0 0 Z M-1 11 C-2.65 15.29 -4.3 19.58 -6 24 C-1.38 24 3.24 24 8 24 C6.28666874 18.78065749 6.28666874 18.78065749 3.875 14.125 C3.25625 13.09375 2.6375 12.0625 2 11 C1.01 11 0.02 11 -1 11 Z " fill="#030303" transform="translate(189,324)"/>
<path d="M0 0 C3.58272463 0.75890226 5.22137006 2.65039064 7.37890625 5.50390625 C7.70890625 5.83390625 8.03890625 6.16390625 8.37890625 6.50390625 C8.82060744 9.55795448 8.84667298 12.45302769 8.37890625 15.50390625 C5.9243322 18.70848904 3.2956982 21.3169996 -0.62109375 22.50390625 C-5.49466612 22.29652019 -8.14495716 20.88348349 -11.62109375 17.50390625 C-13.82143735 14.70346893 -13.61672914 13.22893571 -13.55859375 9.56640625 C-13.04537485 6.51560502 -12.43055372 5.20887653 -10.68359375 2.50390625 C-6.91583717 0.04333053 -4.43148045 -0.20473308 0 0 Z " fill="#E51C25" transform="translate(296.62109375,177.49609375)"/>
<path d="M0 0 C0 2.83967231 -0.40267181 5.23735711 -1 8 C1.15634036 8 2.92446352 7.5534764 5 7 C4.67 6.01 4.34 5.02 4 4 C4.66 3.34 5.32 2.68 6 2 C8.125 2.375 8.125 2.375 10 3 C9.03900391 4.05574219 9.03900391 4.05574219 8.05859375 5.1328125 C0.87644456 13.33180844 -4.84192569 21.76707906 -8 32.3515625 C-8.495 33.66253906 -8.495 33.66253906 -9 35 C-10.485 35.495 -10.485 35.495 -12 36 C-13 35 -13 35 -13.3125 31.75 C-13.145821 21.39738194 -8.41665609 8.80625316 -1.31640625 1.1953125 C-0.88199219 0.80085937 -0.44757813 0.40640625 0 0 Z " fill="#DD1E27" transform="translate(194,193)"/>
<path d="M0 0 C8.17817372 -0.48106904 8.17817372 -0.48106904 11.5625 1.5 C13.72659573 5.26364476 13.47993784 7.68055941 13 12 C11.3317751 14.36151317 10.37019921 14.92362819 7.51953125 15.51171875 C5.01302083 15.67447917 2.50651042 15.83723958 0 16 C0 10.72 0 5.44 0 0 Z M3 3 C3 6.3 3 9.6 3 13 C7.64985706 13.42874646 7.64985706 13.42874646 9.875 11.875 C11.55290631 9.07848948 10.74875648 7.06309468 10 4 C8.68 3.67 7.36 3.34 6 3 C6.99 4.32 7.98 5.64 9 7 C6.53199953 5.84826645 4.95216435 4.95216435 3 3 Z " fill="#070607" transform="translate(212,379)"/>
<path d="M0 0 C8 0 8 0 10.0625 1.1875 C11.37601504 3.7269624 10.70939453 5.3043008 10 8 C10.33 8.33 10.66 8.66 11 9 C11 9.66 11 10.32 11 11 C10.34 11 9.68 11 9 11 C9.66 12.65 10.32 14.3 11 16 C10.01 16 9.02 16 8 16 C7.34 15.01 6.68 14.02 6 13 C5.34 13.66 4.68 14.32 4 15 C4 14.01 4 13.02 4 12 C3.34 12 2.68 12 2 12 C2 13.32 2 14.64 2 16 C1.34 16 0.68 16 0 16 C0 10.72 0 5.44 0 0 Z M6 3 C6.33 3.99 6.66 4.98 7 6 C5.35 5.67 3.7 5.34 2 5 C2 5.66 2 6.32 2 7 C3.98 7 5.96 7 8 7 C8 5.68 8 4.36 8 3 C7.34 3 6.68 3 6 3 Z " fill="#0A080A" transform="translate(294,379)"/>
<path d="M0 0 C2.7224474 1.01805806 3.81442388 1.67123244 5.265625 4.2421875 C5.59046875 5.11101562 5.9153125 5.97984375 6.25 6.875 C6.58515625 7.73867188 6.9203125 8.60234375 7.265625 9.4921875 C8 12 8 12 8 16 C7.24074219 15.91621094 6.48148438 15.83242188 5.69921875 15.74609375 C4.20841797 15.59333984 4.20841797 15.59333984 2.6875 15.4375 C1.70136719 15.33308594 0.71523437 15.22867187 -0.30078125 15.12109375 C-3.09930347 14.83397473 -3.09930347 14.83397473 -6 16 C-6 13.69 -6 11.38 -6 9 C-5.01 9 -4.02 9 -3 9 C-2.87625 8.2575 -2.7525 7.515 -2.625 6.75 C-2.04513299 4.19858515 -1.26291261 2.2732427 0 0 Z M1 4 C2 6 2 6 2 6 Z M-2 12 C-2 12.33 -2 12.66 -2 13 C-0.02 13 1.96 13 4 13 C4.33 13.66 4.66 14.32 5 15 C5 14.01 5 13.02 5 12 C2.69 12 0.38 12 -2 12 Z " fill="#070707" transform="translate(179,379)"/>
<path d="M0 0 C4.27880146 3.66754411 6.63995359 8.25673561 9.3125 13.125 C9.77978516 13.94871094 10.24707031 14.77242187 10.72851562 15.62109375 C11.38303711 16.80251953 11.38303711 16.80251953 12.05078125 18.0078125 C12.44950439 18.72598145 12.84822754 19.44415039 13.2590332 20.18408203 C13.50355225 20.78333496 13.74807129 21.38258789 14 22 C13.67 22.66 13.34 23.32 13 24 C12.01 23.67 11.02 23.34 10 23 C10.33 22.01 10.66 21.02 11 20 C10.01 20.33 9.02 20.66 8 21 C7.67 23.97 7.34 26.94 7 30 C6.67 30 6.34 30 6 30 C5.82984375 29.03320312 5.6596875 28.06640625 5.484375 27.0703125 C4.19383748 20.04827009 2.8097701 13.62887302 -0.328125 7.1484375 C-1.1720203 4.44993507 -0.73680072 2.69215647 0 0 Z " fill="#C1252C" transform="translate(248,98)"/>
<path d="M0 0 C3 0.1875 3 0.1875 5 1.1875 C6.26229508 5.66290984 6.26229508 5.66290984 5 8.1875 C5.27942455 9.86404729 5.60828247 11.53358154 6 13.1875 C4.375 14.75 4.375 14.75 2 16.1875 C-1.01733125 15.9461135 -3.29283042 15.54108479 -6 14.1875 C-5.34 12.2075 -4.68 10.2275 -4 8.1875 C-4.33 7.8575 -4.66 7.5275 -5 7.1875 C-5.1875 4.75 -5.1875 4.75 -5 2.1875 C-3 0.1875 -3 0.1875 0 0 Z M-3 3.1875 C-2.67 3.8475 -2.34 4.5075 -2 5.1875 C-1.67 4.5275 -1.34 3.8675 -1 3.1875 C-1.66 3.1875 -2.32 3.1875 -3 3.1875 Z M2 10.1875 C2 10.8475 2 11.5075 2 12.1875 C-0.97 11.6925 -0.97 11.6925 -4 11.1875 C-3.67 11.8475 -3.34 12.5075 -3 13.1875 C-1.02 13.1875 0.96 13.1875 3 13.1875 C2.67 12.1975 2.34 11.2075 2 10.1875 Z " fill="#0E090A" transform="translate(263,378.8125)"/>
<path d="M0 0 C3.3 0 6.6 0 10 0 C10.33 1.32 10.66 2.64 11 4 C10.34 4.66 9.68 5.32 9 6 C9.33 6.99 9.66 7.98 10 9 C7.36 9 4.72 9 2 9 C2 10.32 2 11.64 2 13 C4.64 13 7.28 13 10 13 C9.67 13.99 9.34 14.98 9 16 C6.03 16 3.06 16 0 16 C0 10.72 0 5.44 0 0 Z " fill="#131213" transform="translate(316,379)"/>
<path d="M0 0 C3.3 0 6.6 0 10 0 C10.33 1.32 10.66 2.64 11 4 C10.67 4.33 10.34 4.66 10 5 C7.66666667 5 5.33333333 5 3 5 C2.67 5.33 2.34 5.66 2 6 C4.31 6 6.62 6 9 6 C9.33 6.99 9.66 7.98 10 9 C7.36 9 4.72 9 2 9 C2 10.32 2 11.64 2 13 C4.64 13 7.28 13 10 13 C9.67 13.99 9.34 14.98 9 16 C6.03 16 3.06 16 0 16 C-1.52634923 12.94730154 -0.83794444 10.24154311 -0.5625 6.875 C-0.46066406 5.59367187 -0.35882813 4.31234375 -0.25390625 2.9921875 C-0.12822266 1.51105469 -0.12822266 1.51105469 0 0 Z " fill="#0E0C0D" transform="translate(237,379)"/>
<path d="M0 0 C1.08747157 3.2624147 0.90762745 4.14800188 0.125 7.375 C-1.22474671 13.54005932 -1.62543073 19.71117916 -2 26 C-6.50380052 25.5406889 -8.79417639 24.84098205 -11.875 21.5 C-12.47054687 20.8709375 -13.06609375 20.241875 -13.6796875 19.59375 C-15 18 -15 18 -15 17 C-13.35 17 -11.7 17 -10 17 C-10 17.66 -10 18.32 -10 19 C-9.01 19 -8.02 19 -7 19 C-7.66 17.68 -8.32 16.36 -9 15 C-7 16 -5 17 -3 18 C-3.05220703 16.93072266 -3.05220703 16.93072266 -3.10546875 15.83984375 C-3.27931846 9.68887544 -2.90464152 5.44620285 0 0 Z " fill="#D61F27" transform="translate(228,266)"/>
<path d="M0 0 C0.66 0 1.32 0 2 0 C3.47265625 1.609375 3.47265625 1.609375 5.0625 3.75 C5.85333984 4.79414062 5.85333984 4.79414062 6.66015625 5.859375 C7.96931568 7.95097666 8.56033954 9.59000935 9 12 C7.68 11.67 6.36 11.34 5 11 C5.33 10.01 5.66 9.02 6 8 C5.01 8.33 4.02 8.66 3 9 C2.67 11.97 2.34 14.94 2 18 C1.67 18 1.34 18 1 18 C-0.0712828 11.97403427 -0.09945415 6.11090483 0 0 Z " fill="#D62129" transform="translate(253,110)"/>
<path d="M0 0 C1.8333284 3.13868735 2.25629981 5.44432568 2.265625 9.0625 C2.26949219 10.50496094 2.26949219 10.50496094 2.2734375 11.9765625 C2.26570313 12.97429687 2.25796875 13.97203125 2.25 15 C2.25773437 15.99773437 2.26546875 16.99546875 2.2734375 18.0234375 C2.27085937 18.98507813 2.26828125 19.94671875 2.265625 20.9375 C2.26336914 21.81277344 2.26111328 22.68804687 2.25878906 23.58984375 C1.98397638 26.14923126 1.28961635 27.79215631 0 30 C-1 29 -1 29 -1.02172852 26.22436523 C-0.97459717 25.01466064 -0.92746582 23.80495605 -0.87890625 22.55859375 C-0.83056641 21.25341797 -0.78222656 19.94824219 -0.73242188 18.60351562 C-0.67589169 17.21483925 -0.61924959 15.82616743 -0.5625 14.4375 C-0.50929453 13.04493979 -0.45655404 11.65236174 -0.40429688 10.25976562 C-0.27411909 6.83964019 -0.1391382 3.41977076 0 0 Z " fill="#C2262B" transform="translate(279,157)"/>
<path d="M0 0 C0.66 0 1.32 0 2 0 C2 1.32 2 2.64 2 4 C1.34 4 0.68 4 0 4 C0.33 5.32 0.66 6.64 1 8 C1.99 6.02 2.98 4.04 4 2 C4.66 2 5.32 2 6 2 C5.52140759 3.60433809 5.04210442 5.20846416 4.5625 6.8125 C4.29566406 7.70582031 4.02882812 8.59914062 3.75390625 9.51953125 C3.19612127 11.35473055 2.60655425 13.18033726 2 15 C1.01 15.33 0.02 15.66 -1 16 C-2 15 -2 15 -2.1875 11.375 C-2.15040203 7.26454534 -1.29581353 3.88744058 0 0 Z " fill="#C8272C" transform="translate(183,213)"/>
<path d="M0 0 C2.64 0 5.28 0 8 0 C6.6875 1.5 6.6875 1.5 5 3 C4.01 3 3.02 3 2 3 C2 4.32 2 5.64 2 7 C4.475 7.99 4.475 7.99 7 9 C7 9.33 7 9.66 7 10 C5.35 10 3.7 10 2 10 C2 11.98 2 13.96 2 16 C1.34 16 0.68 16 0 16 C0 10.72 0 5.44 0 0 Z " fill="#1D1A1C" transform="translate(294,379)"/>
<path d="M0 0 C1.16513276 3.49539828 0.46240853 5.20673282 -0.47949219 8.6640625 C-1.42211827 12.89438443 -1.4743373 17.18100253 -1.625 21.5 C-1.66367188 22.4178125 -1.70234375 23.335625 -1.7421875 24.28125 C-1.83549564 26.52064528 -1.92128185 28.76005254 -2 31 C-2.33 31 -2.66 31 -3 31 C-5.34530128 20.74876374 -4.75390043 9.50780086 0 0 Z " fill="#C0202D" transform="translate(197,223)"/>
<path d="M0 0 C0.66 0 1.32 0 2 0 C2 0.99 2 1.98 2 3 C1.01 3.66 0.02 4.32 -1 5 C-0.67 5.99 -0.34 6.98 0 8 C1.98 7.67 3.96 7.34 6 7 C5.67 7.66 5.34 8.32 5 9 C1.29886728 10.1189471 -0.58889661 10.15021086 -4.25 8.8125 C-6.99648603 7.00231602 -7.94728122 6.05288447 -9 3 C-8.34 3 -7.68 3 -7 3 C-7 3.66 -7 4.32 -7 5 C-6.21625 4.505 -5.4325 4.01 -4.625 3.5 C-2 2 -2 2 0 2 C0 1.34 0 0.68 0 0 Z " fill="#D4232C" transform="translate(294,190)"/>
<path d="M0 0 C0.66 0 1.32 0 2 0 C1.53262113 5.92013241 -0.96208261 10.97466002 -4 16 C-4.66 16.33 -5.32 16.66 -6 17 C-7.27162597 13.1851221 -6.64661571 11.6068725 -5 8 C-2.875 7.125 -2.875 7.125 -1 7 C-1.020625 6.030625 -1.04125 5.06125 -1.0625 4.0625 C-1 1 -1 1 0 0 Z " fill="#D62124" transform="translate(240,146)"/>
<path d="M0 0 C1 2 1 2 0.25 5.5 C-1 9 -1 9 -4 11 C-4.33 10.67 -4.66 10.34 -5 10 C-5.18175781 10.56589844 -5.36351562 11.13179687 -5.55078125 11.71484375 C-5.80214844 12.44832031 -6.05351562 13.18179687 -6.3125 13.9375 C-6.55613281 14.66839844 -6.79976562 15.39929688 -7.05078125 16.15234375 C-8 18 -8 18 -11 19 C-9.70062418 14.60810974 -7.99867186 11.08270853 -5.5 7.25 C-4.8915625 6.30640625 -4.283125 5.3628125 -3.65625 4.390625 C-2 2 -2 2 0 0 Z " fill="#CD2026" transform="translate(255,244)"/>
<path d="M0 0 C3.06819178 2.60888163 4.44860146 5.62763129 6.125 9.25 C6.64320313 10.34828125 7.16140625 11.4465625 7.6953125 12.578125 C9.04423473 16.11601682 9.6967032 19.23176706 10 23 C9.67 23.66 9.34 24.32 9 25 C8.34 25 7.68 25 7 25 C7.020625 23.783125 7.04125 22.56625 7.0625 21.3125 C7.06824116 18.08022678 6.78766315 15.15065259 6 12 C5.34 12 4.68 12 4 12 C4 10.68 4 9.36 4 8 C3.34 8 2.68 8 2 8 C0.23537317 4.91190305 0 3.76687864 0 0 Z " fill="#C7262B" transform="translate(269,134)"/>
<path d="M0 0 C2.88626701 0.5134225 4.32115352 1.42992312 6.4375 3.43359375 C6.4375 4.09359375 6.4375 4.75359375 6.4375 5.43359375 C5.86902344 5.28921875 5.30054688 5.14484375 4.71484375 4.99609375 C-0.18512205 3.8181387 -4.5270312 3.21931848 -9.5625 3.43359375 C-9.5625 4.09359375 -9.5625 4.75359375 -9.5625 5.43359375 C-10.2225 5.10359375 -10.8825 4.77359375 -11.5625 4.43359375 C-8.38787879 -0.1840371 -5.17334762 -0.0078862 0 0 Z " fill="#CF2026" transform="translate(296.5625,177.56640625)"/>
<path d="M0 0 C2 1 2 1 3 3 C2.34 3 1.68 3 1 3 C1 4.32 1 5.64 1 7 C0.34 7 -0.32 7 -1 7 C-1.33 7.66 -1.66 8.32 -2 9 C-3.98 9 -5.96 9 -8 9 C-7.04270084 7.87411986 -6.08412105 6.7493285 -5.125 5.625 C-4.59132813 4.99851563 -4.05765625 4.37203125 -3.5078125 3.7265625 C-2.38567993 2.44163349 -1.20628025 1.20628025 0 0 Z " fill="#D9202B" transform="translate(274,224)"/>
<path d="M0 0 C0.66 0.33 1.32 0.66 2 1 C-1.76460159 5.9746521 -5.03388202 9.01129401 -11 11 C-11.99 11 -12.98 11 -14 11 C-12.23055495 9.53998252 -10.45939429 8.08204407 -8.6875 6.625 C-7.70136719 5.81289062 -6.71523438 5.00078125 -5.69921875 4.1640625 C-3 2 -3 2 0 0 Z " fill="#CE212B" transform="translate(290,212)"/>
<path d="M0 0 C1.32 0.66 2.64 1.32 4 2 C2.02 4.97 0.04 7.94 -2 11 C-2.66 9.68 -3.32 8.36 -4 7 C-3.34 6.34 -2.68 5.68 -2 5 C-2.3185177 2.89179203 -2.3185177 2.89179203 -3 1 C-2.01 0.67 -1.02 0.34 0 0 Z " fill="#E02126" transform="translate(269,203)"/>
<path d="M0 0 C0.144375 0.639375 0.28875 1.27875 0.4375 1.9375 C0.81007181 3.97545146 0.81007181 3.97545146 2 5 C1.34 6.32 0.68 7.64 0 9 C-0.99 8.67 -1.98 8.34 -3 8 C-2.67 8.99 -2.34 9.98 -2 11 C-3.65 11.33 -5.3 11.66 -7 12 C-5.61735163 9.13132769 -4.07851447 6.43975968 -2.375 3.75 C-1.92898437 3.04359375 -1.48296875 2.3371875 -1.0234375 1.609375 C-0.68570313 1.07828125 -0.34796875 0.5471875 0 0 Z " fill="#D2202B" transform="translate(246,164)"/>
<path d="M0 0 C0.66 0 1.32 0 2 0 C1.855625 0.680625 1.71125 1.36125 1.5625 2.0625 C0.10075102 8.57212596 0.10075102 8.57212596 1 15 C-0.32 15 -1.64 15 -3 15 C-4.57156655 11.8568669 -3.11705576 9.634536 -2.0625 6.375 C-1.68222656 5.18648438 -1.30195313 3.99796875 -0.91015625 2.7734375 C-0.60980469 1.85820313 -0.30945313 0.94296875 0 0 Z " fill="#D82229" transform="translate(239,114)"/>
<path d="M0 0 C0.66 0 1.32 0 2 0 C2 4.95 2 9.9 2 15 C1.01 15.33 0.02 15.66 -1 16 C-0.67 10.72 -0.34 5.44 0 0 Z " fill="#1C1C1C" transform="translate(280,379)"/>
<path d="M0 0 C0 0.99 0 1.98 0 3 C-0.495 3.4125 -0.99 3.825 -1.5 4.25 C-3.82742825 6.96533296 -3.19449836 9.56386238 -3 13 C-3.99 13.33 -4.98 13.66 -6 14 C-7 11 -7 11 -7 8 C-5.46875 5.95703125 -5.46875 5.95703125 -3.5 3.8125 C-2.8503125 3.09707031 -2.200625 2.38164062 -1.53125 1.64453125 C-1.0259375 1.10183594 -0.520625 0.55914062 0 0 Z " fill="#D1232B" transform="translate(211,203)"/>
<path d="M0 0 C0.99 1.32 1.98 2.64 3 4 C1.04783565 5.95216435 -0.53199953 6.84826645 -3 8 C-4.32 6.35 -5.64 4.7 -7 3 C-5.68 2.34 -4.36 1.68 -3 1 C-2.67 1.99 -2.34 2.98 -2 4 C-1.34 4 -0.68 4 0 4 C-0.33 3.01 -0.66 2.02 -1 1 C-0.67 0.67 -0.34 0.34 0 0 Z " fill="#E1212A" transform="translate(213,273)"/>
<path d="M0 0 C0 3.72207387 -1.17964568 5.46395589 -3 8.6875 C-3.8353125 10.17830078 -3.8353125 10.17830078 -4.6875 11.69921875 C-5.3371875 12.83810547 -5.3371875 12.83810547 -6 14 C-7.0625 12.1875 -7.0625 12.1875 -8 10 C-7.67 9.01 -7.34 8.02 -7 7 C-6.34 7 -5.68 7 -5 7 C-5 6.34 -5 5.68 -5 5 C-4.34 5 -3.68 5 -3 5 C-2.690625 4.360625 -2.38125 3.72125 -2.0625 3.0625 C-1 1 -1 1 0 0 Z " fill="#CB212C" transform="translate(240,242)"/>
<path d="M0 0 C2.125 0.9375 2.125 0.9375 4 2 C4 2.66 4 3.32 4 4 C3.34 4 2.68 4 2 4 C1.896875 4.78375 1.79375 5.5675 1.6875 6.375 C1 9 1 9 -2 11 C-2 9.35 -2 7.7 -2 6 C-1.34 6 -0.68 6 0 6 C0 4.68 0 3.36 0 2 C-0.66 1.67 -1.32 1.34 -2 1 C-1.34 0.67 -0.68 0.34 0 0 Z " fill="#E71C23" transform="translate(185,211)"/>
<path d="M0 0 C1.60031344 3.20062687 0.03173691 5.72271806 -1 9 C-1.66 9 -2.32 9 -3 9 C-3.28875 9.639375 -3.5775 10.27875 -3.875 10.9375 C-5 13 -5 13 -7 14 C-5.23570801 9.02790438 -2.6060834 4.56561939 0 0 Z " fill="#C72329" transform="translate(230,138)"/>
<path d="M0 0 C0.33 0 0.66 0 1 0 C1.36190476 5.42857143 1.36190476 5.42857143 -0.1875 7.875 C-2.56036279 9.34781139 -4.25913944 9.22223194 -7 9 C-7.33 8.34 -7.66 7.68 -8 7 C-7.236875 6.773125 -6.47375 6.54625 -5.6875 6.3125 C-2.44700291 4.72993166 -1.64845477 3.13206406 0 0 Z " fill="#0F0F10" transform="translate(224,385)"/>
<path d="M0 0 C2.64 0 5.28 0 8 0 C7.67 0.66 7.34 1.32 7 2 C6.34 2 5.68 2 5 2 C5 2.66 5 3.32 5 4 C7.31 4.33 9.62 4.66 12 5 C12 5.33 12 5.66 12 6 C9.03 6 6.06 6 3 6 C2.01 4.02 1.02 2.04 0 0 Z " fill="#DC1E27" transform="translate(245,294)"/>
<path d="M0 0 C0.8971875 0.309375 0.8971875 0.309375 1.8125 0.625 C2.1425 1.945 2.4725 3.265 2.8125 4.625 C1.925625 4.439375 1.03875 4.25375 0.125 4.0625 C-3.03928811 3.64457516 -5.13589642 3.81722258 -8.1875 4.625 C-3.2421875 -0.55580357 -3.2421875 -0.55580357 0 0 Z " fill="#CF2530" transform="translate(308.1875,202.375)"/>
<path d="M0 0 C0.5534764 2.07553648 1 3.84365964 1 6 C-0.32 6 -1.64 6 -3 6 C-3.33 7.32 -3.66 8.64 -4 10 C-4.66 10 -5.32 10 -6 10 C-6.66 11.32 -7.32 12.64 -8 14 C-8 9.96618977 -6.40426438 8.50566363 -4 5.3125 C-3.2575 4.31863281 -2.515 3.32476562 -1.75 2.30078125 C-1.1725 1.54152344 -0.595 0.78226563 0 0 Z " fill="#C8262D" transform="translate(207,175)"/>
<path d="M0 0 C2.125 0.375 2.125 0.375 4 1 C2.69118353 2.66956087 1.37785174 4.33558304 0.0625 6 C-0.66839844 6.928125 -1.39929688 7.85625 -2.15234375 8.8125 C-2.76207031 9.534375 -3.37179688 10.25625 -4 11 C-4.33 11 -4.66 11 -5 11 C-5 9.35 -5 7.7 -5 6 C-3.68 5.67 -2.36 5.34 -1 5 C-1.33 4.01 -1.66 3.02 -2 2 C-1.34 1.34 -0.68 0.68 0 0 Z " fill="#CF222B" transform="translate(200,195)"/>
<path d="M0 0 C1 2 1 2 0.22265625 4.3828125 C-0.16019531 5.28773438 -0.54304687 6.19265625 -0.9375 7.125 C-1.31777344 8.03507813 -1.69804687 8.94515625 -2.08984375 9.8828125 C-2.54037109 10.93082031 -2.54037109 10.93082031 -3 12 C-4.32 11.67 -5.64 11.34 -7 11 C-4.69 7.37 -2.38 3.74 0 0 Z " fill="#CD2027" transform="translate(222,152)"/>
<path d="M0 0 C0.33 0.99 0.66 1.98 1 3 C0 4 0 4 -3.5625 4.0625 C-4.696875 4.041875 -5.83125 4.02125 -7 4 C-7.33 3.01 -7.66 2.02 -8 1 C-2.25 0 -2.25 0 0 0 Z " fill="#020002" transform="translate(247,380)"/>
<path d="M0 0 C3.3 0 6.6 0 10 0 C8 2 8 2 4.875 2.125 C3.92625 2.08375 2.9775 2.0425 2 2 C1.67 3.32 1.34 4.64 1 6 C0.67 5.67 0.34 5.34 0 5 C0 3.35 0 1.7 0 0 Z " fill="#131214" transform="translate(237,379)"/>
<path d="M0 0 C0.92538169 3.70152678 1.08174162 4.63458162 0 8 C-2.97 7.505 -2.97 7.505 -6 7 C-4.02 4.69 -2.04 2.38 0 0 Z " fill="#D5262B" transform="translate(231,183)"/>
<path d="M0 0 C1.32 1.32 2.64 2.64 4 4 C3.67 4.66 3.34 5.32 3 6 C3 6.66 3 7.32 3 8 C2.68521554 9.33783393 2.35412344 10.67203709 2 12 C-1.57142857 4.71428571 -1.57142857 4.71428571 0 0 Z " fill="#BB2932" transform="translate(248,98)"/>
<path d="M0 0 C0.33 0.66 0.66 1.32 1 2 C2.65 2 4.3 2 6 2 C6 1.34 6 0.68 6 0 C6.66 0 7.32 0 8 0 C6.92598892 2.91517292 6.22189824 4.77810176 4 7 C3.34 6.01 2.68 5.02 2 4 C1.01 4 0.02 4 -1 4 C-0.67 2.68 -0.34 1.36 0 0 Z " fill="#CF232C" transform="translate(185,208)"/>
<path d="M0 0 C3.96 1.98 3.96 1.98 8 4 C7.67 4.66 7.34 5.32 7 6 C4.03 5.505 4.03 5.505 1 5 C0.67 3.35 0.34 1.7 0 0 Z " fill="#161314" transform="translate(258,382)"/>
<path d="M0 0 C0.33 0.66 0.66 1.32 1 2 C-0.43200721 6.29602164 -3.2675345 7.12908491 -7.16796875 9.08984375 C-7.77253906 9.39019531 -8.37710938 9.69054687 -9 10 C-8.06409496 8.8944811 -7.12620142 7.79064547 -6.1875 6.6875 C-5.66542969 6.07261719 -5.14335937 5.45773438 -4.60546875 4.82421875 C-3.12827531 3.14575321 -1.59960869 1.56117966 0 0 Z " fill="#C6282C" transform="translate(221,193)"/>
<path d="M0 0 C0 3 0 3 -2.5 5.6875 C-3.325 6.450625 -4.15 7.21375 -5 8 C-5.33 6.68 -5.66 5.36 -6 4 C-4.02 2.68 -2.04 1.36 0 0 Z " fill="#CE2029" transform="translate(246,234)"/>
<path d="M0 0 C-0.33 0.99 -0.66 1.98 -1 3 C-3.64 3 -6.28 3 -9 3 C-6.38997624 -0.48003168 -4.1689578 -0.27793052 0 0 Z " fill="#020202" transform="translate(327,381)"/>
<path d="M0 0 C2.475 0.99 2.475 0.99 5 2 C4.01 2.495 4.01 2.495 3 3 C2.34 2.67 1.68 2.34 1 2 C1 5.63 1 9.26 1 13 C0.67 13 0.34 13 0 13 C0 8.71 0 4.42 0 0 Z " fill="#000000" transform="translate(338,347)"/>
<path d="M0 0 C1.65 0 3.3 0 5 0 C5.66 2.31 6.32 4.62 7 7 C5.83040013 6.02433888 4.66438823 5.044375 3.5 4.0625 C2.8503125 3.51722656 2.200625 2.97195313 1.53125 2.41015625 C1.0259375 1.94480469 0.520625 1.47945313 0 1 C0 0.67 0 0.34 0 0 Z " fill="#CD262D" transform="translate(213,283)"/>
<path d="M0 0 C0.33 0 0.66 0 1 0 C1 1.98 1 3.96 1 6 C-0.65 6.66 -2.3 7.32 -4 8 C-2.87548273 5.0280615 -1.77706209 2.66559313 0 0 Z " fill="#CB2329" transform="translate(202,214)"/>
<path d="M0 0 C0.66 0 1.32 0 2 0 C0.75023244 3.65316671 0.32901247 4.78065836 -3 7 C-3.33 5.68 -3.66 4.36 -4 3 C-2.68 2.67 -1.36 2.34 0 2 C0 1.34 0 0.68 0 0 Z " fill="#D71A25" transform="translate(269,207)"/>
<path d="M0 0 C2.31 0 4.62 0 7 0 C7.33 0.99 7.66 1.98 8 3 C3.44615385 3.36923077 3.44615385 3.36923077 1.1875 1.5 C0.5996875 0.7575 0.5996875 0.7575 0 0 Z " fill="#0B0A0A" transform="translate(318,385)"/>
<path d="M0 0 C1.9375 0.75 1.9375 0.75 4 2 C4.75 4.125 4.75 4.125 5 6 C4.01 6.66 3.02 7.32 2 8 C1.34 5.36 0.68 2.72 0 0 Z " fill="#D91E2A" transform="translate(249,102)"/>
<path d="M0 0 C0.66 0.33 1.32 0.66 2 1 C2 1.66 2 2.32 2 3 C2.99 3.33 3.98 3.66 5 4 C3.35 4.33 1.7 4.66 0 5 C-0.5625 3.0625 -0.5625 3.0625 -1 1 C-0.67 0.67 -0.34 0.34 0 0 Z " fill="#DD2229" transform="translate(274,290)"/>
<path d="M0 0 C0.99 0.33 1.98 0.66 3 1 C-2.75 6 -2.75 6 -5 6 C-5 5.34 -5 4.68 -5 4 C-2.6875 1.8125 -2.6875 1.8125 0 0 Z " fill="#BF282C" transform="translate(292,283)"/>
<path d="M0 0 C0.66 0.33 1.32 0.66 2 1 C1.67 1.99 1.34 2.98 1 4 C0.34 4 -0.32 4 -1 4 C-1 4.66 -1 5.32 -1 6 C-1.99 6.33 -2.98 6.66 -4 7 C-2.92598892 4.08482708 -2.22189824 2.22189824 0 0 Z " fill="#D0212A" transform="translate(212,168)"/>
<path d="M0 0 C0.66 0 1.32 0 2 0 C1.44271087 3.34373475 0.64826111 6.03312999 -1 9 C-2.60031344 5.79937313 -1.03173691 3.27728194 0 0 Z " fill="#CD2A3B" transform="translate(239,114)"/>
<path d="M0 0 C0 0.99 0 1.98 0 3 C-2.31 3 -4.62 3 -7 3 C-7 2.34 -7 1.68 -7 1 C-3.535 0.505 -3.535 0.505 0 0 Z " fill="#000000" transform="translate(326,388)"/>
<path d="M0 0 C2.31 0 4.62 0 7 0 C7 0.66 7 1.32 7 2 C4.69 2 2.38 2 0 2 C0 1.34 0 0.68 0 0 Z " fill="#040004" transform="translate(240,389)"/>
<path d="M0 0 C0.99 1.32 1.98 2.64 3 4 C2.67 4.66 2.34 5.32 2 6 C0.68 5.34 -0.64 4.68 -2 4 C-1.34 2.68 -0.68 1.36 0 0 Z " fill="#000000" transform="translate(190,336)"/>
<path d="M0 0 C0.33 0 0.66 0 1 0 C1 3.63 1 7.26 1 11 C0.67 11 0.34 11 0 11 C0 7.37 0 3.74 0 0 Z " fill="#000000" transform="translate(283,382)"/>
<path d="M0 0 C0.66 1.32 1.32 2.64 2 4 C1.01 3.67 0.02 3.34 -1 3 C-0.67 2.01 -0.34 1.02 0 0 Z " fill="#000000" transform="translate(268,343)"/>
<path d="M0 0 C0.33 0 0.66 0 1 0 C1 2.31 1 4.62 1 7 C0.67 7 0.34 7 0 7 C0 4.69 0 2.38 0 0 Z " fill="#000000" transform="translate(141,338)"/>
<path d="M0 0 C0.66 0.33 1.32 0.66 2 1 C0.35 1.33 -1.3 1.66 -3 2 C-2.01 1.34 -1.02 0.68 0 0 Z " fill="#000000" transform="translate(219,389)"/>
<path d="M0 0 C0.33 0.99 0.66 1.98 1 3 C0.34 3 -0.32 3 -1 3 C-0.67 2.01 -0.34 1.02 0 0 Z " fill="#000000" transform="translate(172,358)"/>
<path d="M0 0 C0.33 0 0.66 0 1 0 C1 1.65 1 3.3 1 5 C0.67 5 0.34 5 0 5 C0 3.35 0 1.7 0 0 Z " fill="#000000" transform="translate(338,336)"/>
<path d="M0 0 C0.66 0 1.32 0 2 0 C2 0.66 2 1.32 2 2 C1.34 2 0.68 2 0 2 C0 1.34 0 0.68 0 0 Z " fill="#000000" transform="translate(307,345)"/>
<path d="M0 0 C0.66 0 1.32 0 2 0 C2 0.66 2 1.32 2 2 C1.34 2 0.68 2 0 2 C0 1.34 0 0.68 0 0 Z " fill="#000000" transform="translate(193,345)"/>
<path d="M0 0 C3 1 3 1 3 1 Z " fill="#000000" transform="translate(321,396)"/>
<path d="M0 0 C3 1 3 1 3 1 Z " fill="#000000" transform="translate(241,396)"/>
<path d="" fill="#000000" transform="translate(0,0)"/>
<path d="" fill="#000000" transform="translate(0,0)"/>
<path d="M0 0 C3 1 3 1 3 1 Z " fill="#000000" transform="translate(145,322)"/>
<path d="" fill="#000000" transform="translate(0,0)"/>
<path d="M0 0 C2 1 2 1 2 1 Z " fill="#000000" transform="translate(271,353)"/>
<path d="M0 0 C2 1 2 1 2 1 Z " fill="#000000" transform="translate(256,353)"/>
<path d="M0 0 C2 1 2 1 2 1 Z " fill="#000000" transform="translate(197,353)"/>
<path d="" fill="#000000" transform="translate(0,0)"/>
<path d="M0 0 C2 1 2 1 2 1 Z " fill="#000000" transform="translate(158,346)"/>
<path d="" fill="#000000" transform="translate(0,0)"/>
<path d="" fill="#000000" transform="translate(0,0)"/>
<path d="" fill="#000000" transform="translate(0,0)"/>
<path d="" fill="#000000" transform="translate(0,0)"/>
<path d="" fill="#000000" transform="translate(0,0)"/>
<path d="" fill="#000000" transform="translate(0,0)"/>
<path d="" fill="#000000" transform="translate(0,0)"/>
<path d="" fill="#000000" transform="translate(0,0)"/>
<path d="" fill="#000000" transform="translate(0,0)"/>
<path d="" fill="#000000" transform="translate(0,0)"/>
<path d="" fill="#000000" transform="translate(0,0)"/>
<path d="" fill="#000000" transform="translate(0,0)"/>
<path d="" fill="#000000" transform="translate(0,0)"/>
<path d="" fill="#000000" transform="translate(0,0)"/>
<path d="" fill="#000000" transform="translate(0,0)"/>
<path d="" fill="#000000" transform="translate(0,0)"/>
<path d="" fill="#000000" transform="translate(0,0)"/>
<path d="" fill="#000000" transform="translate(0,0)"/>
<path d="" fill="#000000" transform="translate(0,0)"/>
<path d="" fill="#000000" transform="translate(0,0)"/>
<path d="" fill="#000000" transform="translate(0,0)"/>
<path d="" fill="#000000" transform="translate(0,0)"/>
<path d="" fill="#000000" transform="translate(0,0)"/>
</svg>
